<?xml version="1.0" encoding="UTF-8"?><svg id="Layer_1" xmlns="http://www.w3.org/2000/svg" viewBox="0 0 686.72 156.43"><defs><style>.cls-1{fill:none;stroke:#000;stroke-miterlimit:10;stroke-width:.25px;}</style></defs><g><path d="M226.27,9.28V.04h25.61V9.28h29.71V28.29h-27.46c1.19,5.68,4.89,7.13,10.17,7.13,5.55,0,10.43-2.64,13.73-5.28l11.09,16.77c-7.66,7.26-16.64,9.9-24.95,9.9-10.96,0-20.33-3.83-24.82-14.66-10.96,10.56-24.03,15.84-37.36,18.88h92.02v20.46h-42.25v5.28c9.37,.66,17.69,2.38,23.5,5.02,14.13,6.6,16.9,15.2,.39,37.65l-22.18,.11c2.11-2.24,10.3-14.66,2.51-19.28-3.17-1.85-8.85-2.77-15.58-2.77-12.81,0-30.1,3.04-43.83,7.26l-5.41-19.8c10.56-3.7,22.58-6.21,34.46-7.53v-5.94h-42.51v-20.46h11.22l-7.13-18.88c13.34-2.38,25.88-5.41,35.12-13.86h-27.07V9.28h31.03Z"/><path d="M354.07,99.32c-7.65,0-13.68-2.78-17.9-8.67-1.09-1.52-3.29-1.62-4.46-.16-3.64,4.56-7.82,8.89-12.77,12.94-1.1,.9-2.7,.85-3.72-.15l-13.52-13.22c-1.19-1.16-1.09-3.11,.21-4.14,16.55-13.23,23.44-29.79,26.95-46.36,.37-1.73-.96-3.35-2.72-3.35h-13.78c-1.53,0-2.77-1.24-2.77-2.77V17.2c0-1.53,1.24-2.77,2.77-2.77h55.98c1.53,0,2.77,1.24,2.77,2.77v16.24c0,1.53-1.24,2.77-2.77,2.77h-12.39c-1.32,0-2.45,.93-2.72,2.22-1.44,6.95-3.04,13.99-5.36,20.92-.08,.24-.13,.5-.14,.75-.35,7.21,.48,12.85,4.24,14.67,1.19,.66,2.64,.92,3.96,.92,1.24,0,1.66,.05,1.92,.02,1.57-.14,2.89,1.19,2.89,2.77v14.39c0,3.55-2.89,6.45-6.44,6.44-.07,0-.15,0-.22,0Zm4.22-37.23v-14.52c0-1.53,1.24-2.77,2.77-2.77h11.61c1.53,0,2.77-1.24,2.77-2.77V9.41c0-1.53,1.24-2.77,2.77-2.77h16.9c1.53,0,2.77,1.24,2.77,2.77V121.64c0,1.53-1.24,2.77-2.77,2.77h-16.9c-1.53,0-2.77-1.24-2.77-2.77v-54c0-1.53-1.24-2.77-2.77-2.77h-11.61c-1.53,0-2.77-1.24-2.77-2.77ZM427.75,9.41V125.6c0,1.53-1.24,2.77-2.77,2.77h-18.22c-1.53,0-2.77-1.24-2.77-2.77V9.41c0-1.53,1.24-2.77,2.77-2.77h18.22c1.53,0,2.77,1.24,2.77,2.77Z"/><path d="M496.93,69.49c15.05,0,32.74-2.24,46.08-5.55l4.22,20.07c-13.73,2.64-26.01,4.22-37.23,4.89v8.19h42.91v20.2h-110.91v-20.2h42.25v-7.79c-14.13-.53-31.56-1.45-34.46-18.75-1.58-9.51,.26-19.67,1.58-31.95h61.66l.92-8.19h-62.85V9.28h90.57c0,8.98-.92,20.2-3.3,29.31h4.49v19.94h-67.86c-.66,2.64-.53,8.71,4.49,9.64s10.96,1.32,17.43,1.32Z"/><g><path d="M566.44,59.72c1.98,1.85,5.02,2.9,8.05,2.9,1.45,0,2.9-.26,4.22-.79-1.72,3.96-1.06,8.58,2.24,11.62,2.11,1.85,4.75,2.77,7.39,2.77,6.87,0,11.62-6.34,14-12.15,1.98,5.94,7.13,12.15,14,12.15,2.64,0,5.15-.92,7.26-2.77,3.17-3.04,4.22-7.66,2.38-11.62,1.32,.53,2.64,.79,3.96,.79,2.64,0,5.15-1.06,7.39-2.9,4.36-4.09,4.36-10.43,0-14.39-2.24-1.98-4.62-4.22-8.71-5.55,4.09-1.19,6.47-3.43,8.71-5.41,4.36-3.96,4.62-10.56,.26-14.52-2.11-1.85-4.62-2.77-7.26-2.77-1.45,0-2.9,.26-4.36,.79,1.85-3.83,.79-8.58-2.38-11.62-2.11-1.85-4.62-2.77-7.26-2.77-6.87,0-11.88,6.07-14,12.15-2.38-5.94-7-12.15-14-12.15-2.64,0-5.28,.92-7.39,2.77-3.3,3.04-3.96,7.79-2.24,11.62-1.32-.53-2.77-.79-4.22-.79-3.04,0-6.07,1.06-8.05,3.04-4.49,3.96-4.22,10.3,.26,14.26,2.11,1.98,5.41,4.22,9.37,5.41-3.96,1.32-7.26,3.56-9.37,5.55-4.49,3.96-4.75,10.3-.26,14.39Zm35.52-37.06c9.46,0,17.12,7.67,17.12,17.12s-7.67,17.12-17.12,17.12-17.12-7.67-17.12-17.12,7.67-17.12,17.12-17.12Z"/><path d="M614.24,89.82v-12.01h-24.69v12.67h-25.88v20.73h30.5c17.82,0,35.65-.92,52.15-8.19l-6.87-19.8c-7.92,3.56-15.18,5.55-25.22,6.6Z"/><polygon points="672.33 49.81 672.33 6.64 647.24 6.64 647.24 128.37 672.33 128.37 672.33 73.84 686.72 73.84 686.72 49.81 672.33 49.81"/></g></g><g><path d="M205.85,139.26c-2.73,0-5.08,2.28-5.08,6.39s2.35,6.39,5.08,6.39,4.27-2.01,4.63-3.84h.64c-.36,2.05-2.13,4.44-5.27,4.44-3.37,0-5.7-2.8-5.7-7s2.33-7,5.7-7c3.14,0,4.91,2.37,5.27,4.44h-.64c-.36-1.81-1.99-3.84-4.63-3.84Z"/><path d="M250.91,152.47h-.62v-13.62h.62v5.02h.06c.49-1.07,1.62-1.75,3.07-1.75,2.05,0,3.48,1.41,3.48,3.54v6.81h-.62v-6.79c0-1.77-1.18-2.97-2.93-2.97s-3.05,1.22-3.05,3.01v6.75Z"/><path d="M303.75,142.26h.6v10.21h-.6v-1.64h-.06c-.49,1.05-1.64,1.77-3.07,1.77-2.03,0-3.46-1.41-3.46-3.54v-6.81h.62v6.79c0,1.75,1.2,2.95,2.93,2.95s3.03-1.2,3.03-3.01v-6.73Z"/><path d="M344.02,138.85h.62v8.6h.08l5.27-5.19h.83l-4.44,4.4,4.63,5.81h-.79l-4.29-5.42-1.28,1.24v4.18h-.62v-13.62Z"/><path d="M390.14,142.26v11.59c0,1.51-1.07,2.46-2.43,2.46h-.19v-.6h.17c1.02,0,1.84-.7,1.84-1.86v-11.59h.6Zm-.83-2.37c0-.28,.24-.53,.53-.53,.3,0,.55,.24,.55,.53,0,.3-.24,.53-.55,.53-.28,0-.53-.23-.53-.53Z"/><path d="M432.93,146.64c.74-.07,2.45-.19,2.97-.23v-1.22c0-1.52-1.09-2.52-2.8-2.52-1.45,0-2.63,.68-2.9,1.86h-.64c.24-1.52,1.73-2.43,3.54-2.43,1.94,0,3.4,1.15,3.4,3.12v7.24h-.6v-1.97h-.06c-.58,1.28-1.79,2.2-3.37,2.2-1.71,0-3.18-1.09-3.18-3.01,0-1.54,.94-2.82,3.63-3.05Zm-.41,5.47c1.92,0,3.39-1.62,3.39-3.89v-1.26c-.52,.05-2.22,.2-2.8,.23-2.45,.19-3.18,1.24-3.18,2.5,0,1.49,1.13,2.43,2.6,2.43Z"/><path d="M475.63,147.39c0-3.03,1.82-5.28,4.29-5.28,2.33,0,4.21,2.05,4.21,4.87v.47h-7.9c.02,2.59,1.45,4.65,3.89,4.65,1.77,0,2.73-1.11,3.07-1.77h.66c-.41,1.11-1.71,2.35-3.72,2.35-2.73,0-4.5-2.26-4.5-5.29Zm7.88-.53c0-2.33-1.58-4.18-3.59-4.18s-3.55,1.79-3.67,4.18h7.26Z"/><path d="M523.2,142.26h.6v1.62h.08c.45-1.07,1.62-1.75,2.99-1.75h.3v.6h-.32c-1.77,0-3.03,1.22-3.03,2.95v6.79h-.62v-10.21Z"/><path d="M564.69,147.39c0-3.05,1.82-5.28,4.29-5.28s4.31,2.26,4.31,5.28-1.84,5.29-4.31,5.29-4.29-2.24-4.29-5.29Zm7.97,0c0-2.65-1.54-4.7-3.69-4.7s-3.69,2.05-3.69,4.7,1.54,4.7,3.69,4.7,3.69-2.05,3.69-4.7Z"/><path d="M611.16,142.26h.64l2.75,9.35h.06l2.77-9.35h.62l2.77,9.33h.06l2.75-9.33h.64l-3.05,10.21h-.73l-2.71-9.16h-.06l-2.71,9.16h-.75l-3.03-10.21Z"/><path d="M666.1,146.64c.74-.07,2.45-.19,2.97-.23v-1.22c0-1.52-1.09-2.52-2.8-2.52-1.45,0-2.63,.68-2.9,1.86h-.64c.24-1.52,1.73-2.43,3.54-2.43,1.94,0,3.4,1.15,3.4,3.12v7.24h-.6v-1.97h-.06c-.58,1.28-1.79,2.2-3.37,2.2-1.71,0-3.18-1.09-3.18-3.01,0-1.54,.94-2.82,3.63-3.05Zm-.41,5.47c1.92,0,3.39-1.62,3.39-3.89v-1.26c-.52,.05-2.22,.2-2.8,.23-2.45,.19-3.18,1.24-3.18,2.5,0,1.49,1.13,2.43,2.6,2.43Z"/></g><g><path d="M95,154.42c.23-1.59,.82-3.15,1.63-3.77,1.92-1.48,5.64-.6,11.33-.88-.1,.24-.2,.48-.3,.71-2.35,.96-4.72,1.79-7.12,2.51,16.65-4.96,30.98-15.33,40.94-29.07-1.62,.51-3.78-.07-5.68-.12,.12-1.89-.47-4.59,.53-5.48,1.28-1.14,3.86-.83,7.57-1.42-.51,1.98-.71,3.73-.99,4.98,8.3-12.26,13.21-27.01,13.38-42.89-.01,1.26-.06,2.53-.14,3.79-17.45-19.03-39.53-27.34-65.51-27.14-.66,0-1.31-.17-2.06-.28,.25-.44,.33-.79,.51-.86,17.29-5.89,47.98,1.24,66.56,13.66,.01,.1,.03,.2,.04,.3-2.74-22.19-14.79-41.5-32.13-53.89-20.83,1.57-36.41,12.36-47.58,31.51,5.67-18.94,18.25-31.33,35.95-38.37,1.35,.64,2.68,1.32,3.99,2.05C104.77,3.56,91.91,.04,78.22,.04c-3.57,0-7.08,.24-10.52,.71-9.13,16.36-9.24,17.51-8.89,39.25-6.05-8.98-7.79-24.29-4.86-36.11,.64-.21,1.29-.41,1.94-.61-14.65,4.36-27.5,12.91-37.17,24.26,11.95,3.08,21.79,10.66,31.85,20.31-9.88-3.58-17.87-6.9-26.12-9.28-4.07-1.17-8.77-.14-12.9-1.13C4.3,49.29,.12,63.23,.12,78.13c0,2.52,.12,5.02,.36,7.48,13.33-14.04,34.4-24.16,52.1-22.54-24.19,4.79-40.33,16.62-49.58,36.11-.05-.16-.09-.32-.14-.49,4.22,15.48,13.07,29.05,24.98,39.11,.04,0,.08,0,.12,0,0,.03-.01,.06-.02,.09,13.58,11.44,31.12,18.33,50.27,18.33,5.76,0,11.38-.63,16.78-1.81Zm42.46-60.61c1.52,1.7,.16,5.96,.13,9.04-2.97-.61-6.79-.27-8.73-2.02-3.65-3.3-6.07-7.93-9.28-11.77-10.74-12.88-24.18-21.67-40.4-26.3,24.62,.77,42.77,13.68,58.27,31.06Zm4.12-61.31c.13,.17,.25,.34,.38,.52,2.89,4.09,5.33,8.35,7.34,12.75-23.51-10-46.13-8.32-67.76,5.86-1,.66-2.12,1.14-3.19,1.71,18.48-17.97,39.69-24.49,63.23-20.83Zm-52.07,53.78c11.16,14.44,21.84,29.25,32.63,43.98,2.46,3.36,4.51,7.4-.13,10.31-5.13,3.21-7.49-.86-9.7-4.78-10.27-18.19-20.55-36.37-31.02-54.45-1.95-3.37-4.78-6.22-7.2-9.31l.85-.83c4.89,5,10.33,9.58,14.58,15.08ZM81.77,.12c4.1,.19,8.19,.7,12.2,1.53-.56,2.01-1.68,4.05-2.92,4.89-14.13,9.49-22.43,22.18-24.37,39.17-3.02-18.16,2.87-33.09,15.08-45.59Zm-18.08,57.48c1.07-.76,2.55-.5,3.31,.57,.76,1.07,.5,2.55-.57,3.31-1.07,.76-2.55,.5-3.31-.57-.76-1.07-.5-2.55,.57-3.31Zm-15.1-18.79c-4.08-5.76-8.56-11.3-11.99-17.43-1.02-1.81,.91-5.28,1.49-7.99,2.33,1.75,5.9,3.05,6.74,5.35,2.23,6.12,3.28,12.68,4.8,19.06-.35,.34-.69,.68-1.04,1.01Zm-2.79,16.9c-13.2-1.97-25.19,.52-35.19,9.91-3.08,2.89-6.41,4.91-9.69,1.44,.49-3.45,1.22-6.86,2.17-10.21,.22-.15,.44-.3,.66-.45,14.22-9.47,35.22-9.59,51.24,1.14-4.48-.9-6.82-1.48-9.19-1.83ZM25.25,120.43c.01,2.26-3.8,4.54-5.84,6.81-1.89-2.4-5.33-4.75-5.42-7.22-.73-20.88,19.43-45.65,40.54-49.86-19.36,11.3-29.37,27.68-29.27,50.27Zm16.68,26.86c-.16-.6-.33-1.21-.47-1.82-5.16-21.98-.47-50.57,8.25-61.83-.96,11.21-2.97,24.8-3.03,38.39-.05,10.81,2.74,21.12,8.17,30.61-4.44-1.39-8.77-3.17-12.93-5.35Zm19.77-10.02c1.46-1.21,4.91-.03,9.46,.2-1.69,4.26-2.04,7.88-3.75,8.71-1.82,.88-6.11-.13-7.12-1.71-1.02-1.6-.15-5.91,1.41-7.2Zm1.14-65.5c-.13,20.43,7.97,37.61,19.71,53.47,1.73,2.34,4.29,4.54,4.82,7.14,.56,2.76-.84,5.92-1.38,8.91-2.75-.85-7.01-.85-8.03-2.67-11.64-20.74-20.61-42.25-15.12-66.86Z"/><circle class="cls-1" cx="78.22" cy="78.22" r="78.09"/></g></svg>